<?xml version="1.0" encoding="utf-8"?>
<!-- Generator: Adobe Illustrator 15.0.0, SVG Export Plug-In . SVG Version: 6.00 Build 0)  -->
<!DOCTYPE svg PUBLIC "-//W3C//DTD SVG 1.1//EN" "http://www.w3.org/Graphics/SVG/1.1/DTD/svg11.dtd">
<svg version="1.1" id="Layer_1" xmlns="http://www.w3.org/2000/svg" xmlns:xlink="http://www.w3.org/1999/xlink" x="0px" y="0px"
	 width="645px" height="645px" viewBox="-24.86 -24.859 645 645" enable-background="new -24.86 -24.859 645 645"
	 xml:space="preserve">
<g>
	<path fill="#021546" d="M314.206,578.46c-5.303,13.176-10.569,26.269-15.837,39.359c-0.298,0.021-0.587,0.044-0.887,0.066
		c-5.214-13.062-10.438-26.131-15.776-39.487c-14.022-0.992-28.137-1.99-43.467-3.078c11.658-9.715,22.484-18.735,33.493-27.916
		c-3.461-13.829-6.896-27.536-10.607-42.365c12.835,8.1,24.768,15.635,36.939,23.318c11.957-7.493,23.933-14.998,35.911-22.503
		c0.261,0.164,0.518,0.324,0.784,0.485c-3.463,13.635-6.928,27.272-10.458,41.172c10.818,9.064,21.662,18.145,33.422,27.999
		C342.541,576.542,328.483,577.491,314.206,578.46z"/>
	<path fill="#031547" d="M44.925,429.746c-9.446-10.742-18.622-21.179-27.796-31.616c0.091-0.325,0.183-0.652,0.274-0.98
		c14.025,1.191,28.052,2.379,42.261,3.586c7.296-12.224,14.508-24.31,21.718-36.39c0.302,0.053,0.607,0.106,0.908,0.158
		c3.128,13.602,6.257,27.205,9.484,41.238c13.644,3.081,27.416,6.188,41.186,9.301c0.098,0.314,0.191,0.634,0.29,0.953
		c-12.042,7.239-24.086,14.481-36.34,21.849c1.273,14.043,2.538,28.01,3.804,41.976c-0.273,0.199-0.548,0.398-0.82,0.598
		c-10.529-9.133-21.059-18.266-31.936-27.702c-12.941,5.557-26.02,11.174-40.171,17.252
		C33.732,456.012,39.267,443.029,44.925,429.746z"/>
	<path fill="#031547" d="M576.558,197.614c-13.994-1.215-27.986-2.427-42.216-3.658c-7.266,12.202-14.451,24.273-21.638,36.343
		c-0.316,0.011-0.634,0.019-0.947,0.03c-3.157-13.682-6.312-27.366-9.544-41.372c-13.714-3.084-27.393-6.158-41.063-9.235
		c-0.162-0.304-0.32-0.609-0.48-0.915c11.999-7.226,23.994-14.452,36.43-21.94c-1.266-13.87-2.557-27.998-3.848-42.124
		c0.235-0.195,0.464-0.392,0.696-0.587c10.659,9.24,21.311,18.48,32.086,27.828c12.991-5.556,25.918-11.085,38.847-16.615
		c0.256,0.235,0.514,0.468,0.767,0.702c-5.477,12.857-10.955,25.712-16.567,38.888c9.286,10.57,18.626,21.202,27.965,31.837
		C576.882,197.068,576.717,197.34,576.558,197.614z"/>
	<path fill="#021546" d="M271.736,47.45c-11.088-9.231-21.858-18.196-33.522-27.904c15.091-1.061,29.081-2.044,43.46-3.054
		c5.265-13.154,10.547-26.348,16.241-40.579c5.629,14.001,10.842,26.97,16.281,40.493c13.94,0.936,28.065,1.883,42.186,2.832
		c0.183,0.247,0.364,0.494,0.547,0.739c-10.863,9.121-21.727,18.244-32.63,27.398c3.522,13.857,7.004,27.547,10.76,42.328
		c-12.928-8.11-24.896-15.616-36.998-23.206c-12.041,7.61-24.004,15.174-36.93,23.343C264.811,75.129,268.232,61.454,271.736,47.45z
		"/>
	<path fill="#031547" d="M493.251,480.194c1.284-13.948,2.566-27.895,3.864-42.015c-12.216-7.345-24.288-14.604-36.362-21.865
		c0.059-0.312,0.12-0.628,0.18-0.938c13.648-3.073,27.297-6.142,41.285-9.291c3.138-13.653,6.276-27.314,9.416-40.978
		c0.305-0.167,0.608-0.34,0.912-0.509c7.225,12.077,14.448,24.147,21.834,36.494c13.977-1.22,28.083-2.447,42.186-3.68
		c0.169,0.261,0.339,0.521,0.507,0.778c-9.226,10.514-18.453,21.021-27.979,31.871c5.485,12.891,11.027,25.905,16.563,38.918
		c-0.196,0.254-0.394,0.505-0.591,0.762c-12.912-5.518-25.822-11.038-39.045-16.685c-10.544,9.164-21.136,18.366-31.727,27.563
		C493.948,480.477,493.6,480.334,493.251,480.194z"/>
	<path fill="#031547" d="M67.945,142.329c10.685-9.271,21.232-18.42,31.781-27.573c0.324,0.18,0.646,0.358,0.969,0.54
		c-1.247,13.781-2.494,27.563-3.79,41.87c11.956,7.196,24.165,14.544,36.375,21.894c-0.037,0.295-0.075,0.591-0.113,0.886
		c-13.735,3.096-27.47,6.195-41.399,9.335c-3.149,13.738-6.28,27.397-9.411,41.056c-0.313,0.126-0.626,0.253-0.938,0.38
		c-7.226-12.085-14.45-24.173-21.794-36.458c-14.03,1.226-27.98,2.445-41.932,3.663c-0.224-0.273-0.446-0.545-0.67-0.818
		c9.268-10.584,18.535-21.169,27.893-31.859c-5.583-13.075-11.09-25.974-16.599-38.873c0.172-0.275,0.341-0.548,0.512-0.823
		C41.72,131.078,54.609,136.606,67.945,142.329z"/>
</g>
</svg>
